<svg id="Capa_1" data-name="Capa 1" xmlns="http://www.w3.org/2000/svg" viewBox="0 0 1080 1080"><defs><style>.cls-1{fill:#515050;}.cls-2{fill:#e9521e;}.cls-3{fill:#fff;}</style></defs><path class="cls-1" d="M851,799.83c-12.17-9.37-13.85-18.9-13.82-32,.09-32.76-19.49-60.34-49.06-70.55-13.82-4.78-28.35-5.08-42.45-3.49-15.78,1.78-21.39-4.5-26.05-19.15-4.26-13.49-3.77-22.5,6.41-32.24a63.1,63.1,0,0,0,15.84-25.93c3.22-9.74,8.22-13,18.73-12.93,28.19,0,44.68-16.79,45.14-44.87.46-27,.21-54.08.06-81.14-.09-18.85-7.05-34.05-25.22-41.71-6.65-2.82-7-7.24-7.69-13.06-7.21-62-55.63-105.3-118.3-105.79-31.13-.27-62.27-.18-93.4,0C545,317,528.55,319.4,517,303.38c-2.36-3.28-7.73-4.94-12-6.19-6.86-2-9.59-5.49-9.68-13-.15-11.76.58-20.47,14.07-26.44,17.1-7.57,23.93-27.83,19.21-45.54-4.81-18.08-20.32-31.05-38.46-32.12S455,190.23,448.38,207.7c-8.09,21.3.55,41.77,22.56,53.54,8.91,4.78,13.39,29.66,5.27,33.37-21.7,9.93-40,29.39-68,22.77-12.07-2.85-25.4-.49-38.15-.46-17.87,0-35.73-.09-53.6,0-63.68.4-110.72,41.44-119.27,104.32-1,7.11-3.16,11.58-10.36,15-16.15,7.63-24,21-23.66,39.38.46,26.53.06,53.07.13,79.61.06,32.67,14.31,47.35,47.25,48.58,5.7.21,11-.28,13.49,6.83,6.25,17.65,17.4,32.05,30.24,45.51,10.39,10.94-2.51,20.47-3.28,30.86-.49,7-6.46,6.25-11.67,6.49-53.72,2.36-79.34,28.9-79.8,83.08-.1,8.31-2,13.83-9.23,19.07-21.42,15.53-29,40.51-20.81,63.58s30,38.8,53.57,38.53a57.38,57.38,0,0,0,53.29-39.08c7.88-23.75.5-48.39-21.54-63.22-14.65-9.84-8-22.8-7.57-34.32.37-10.21,8.15-17,18.54-19.95,10.12-2.82,15.91-2.7,15.45,11.25-1.5,42.9,7,84.09,24,123.56C317.52,997.13,449,1056.21,568.6,1012.24c100.83-37,169.44-143,165.33-256.72-.45-13.15,2.73-17.87,15.51-15.84,2.48.39,5.09.06,7.66.06,14.1,0,26.6,3,31.87,18.26s1.35,29.61-10.84,39.87a56.24,56.24,0,1,0,75.51,83.2C876.68,858.09,876.74,819.66,851,799.83ZM221.88,840.19c0,26-13.51,40.06-38.55,40-23.57,0-40.82-16.43-41.07-39.11-.27-22.92,18.45-41,42.08-40.51C205,801,221.85,818.74,221.88,840.19Zm10.7-115.78c-16.28.74-29.15,7.79-37.33,22.47-4.47,8-4.11,16.58-4.41,25.22-.19,5.48,2.54,13.15-7.7,13s-6.89-7.78-7.57-13.24a38.5,38.5,0,0,1,0-4.56c.49-33.83,24.21-58.17,57.37-58.26,4.51,0,12.6-3.86,12.35,6C245.08,723.1,239.47,724.11,232.58,724.41ZM765.22,448.3c14,1.13,23.23,10.33,23.32,24.67.13,29.54-.39,59.11.28,88.69.22,10.14-4.63,16.33-11.64,21.72-6.26,4.79-13.92,3.65-20.63,2-7.54-1.9-4.5-9.32-4.6-14.41-.33-17.83-.12-35.67-.12-53.53,0-18.85.49-37.73-.18-56.58C751.25,450.29,755.72,447.53,765.22,448.3ZM550.55,332.49c18.33-.49,36.69-.21,55-.21v.18c18.36,0,36.71-.58,55,.12,49.28,1.84,90.34,39.5,96.53,88.08.52,4,3.37,9.65-3.43,11.4-5.94,1.53-7.45-3.1-9.38-7.54-24.36-55.38-68.09-79.8-127.33-79.43-21.91.12-43.79,0-65.7.06-5.83,0-12,.36-12-7.69C539.21,328.38,546.66,332.61,550.55,332.49ZM460.91,222.32c-.06-14.59,12.78-27,27.62-26.63,13.57.34,26.17,13.24,26.2,26.84,0,13.86-12.23,26.24-26.3,26.54C473.85,249.41,461,236.88,460.91,222.32ZM456.5,327.46c8.25-13.85,20.93-19,36.35-17.13,15.17,1.81,24.45,11.1,29.63,25.19,2.3,6.32,1.59,9.69-6.07,9.47-9.16-.24-18.32-.06-27.49-.06-7.66,0-15.29.06-22.92,0C450.25,344.84,448.29,341.29,456.5,327.46ZM203.34,586.36c-13.48-.71-24-8.77-24.21-21.76-.4-24.43-.12-48.85-.12-73.27,0-6.62-.22-13.24.09-19.86.49-10.05,5.42-17.29,14.77-21.24,15-6.31,21.82-1.93,21.88,14,.06,17.83,0,35.64,0,53.44,0,16.3.34,32.58-.15,48.85C215.35,575.08,220.44,587.25,203.34,586.36Zm12.87-154.79c-7.84-2.27-3.58-10.58-2.82-15.82,6.74-45.29,48.45-81.51,95.92-83.2,18.82-.67,37.7-.12,56.54-.12v-.15c19.34,0,38.71-.22,58,.18,4.6.09,12.69-3.59,12.17,6.31-.43,9-7.91,6.07-12.84,6.22-32.54,1.14-65.18-2-97.67,1.9-47.1,5.58-79.12,31.78-99.87,73.34C223.38,424.86,223.57,433.68,216.21,431.57Zm14.65,126q0-39,0-78.08c.09-72,43.45-118,115.1-118.82q137.82-1.69,275.66,0c72.17.86,115.38,46.12,115.5,118.05.06,28.59.31,57.18-.06,85.75-.83,63.31-47.71,110-110.84,110.35-47.47.25-94.94.06-142.41.06q-68.13,0-136.28,0C277.1,674.74,231,628.34,230.86,557.58ZM565.05,996.73c-116,43-239.62-14.49-288.35-134.13-13.26-32.52-19.3-66.41-19.7-101.38.61-27.67,4.32-54.76,12.78-81.24,2.42-7.66,4.81-8.49,11.4-4.81,22,12.23,45.91,15.38,70.85,15.29q133.86-.6,267.81-.06c25.5.09,49.56-4.44,71.74-17.59,4.42-2.61,8.95-7.51,12.44,2.2C747.05,794.53,692.72,949.41,565.05,996.73ZM752.23,724.2c-3.55,0-7.11-.06-10.66,0-6,.15-11.28-.09-11.16-8.43.12-8.12,5.85-6.71,10.7-6.89,4.07-.16,8.12,0,12.19,0C800,706,824,738.14,822.1,775c-.3,5.3.09,10.23-7.6,10.27-7.48,0-7.48-4.6-7.84-10.06C804,736.4,790.9,724.23,752.23,724.2ZM852.9,841.63c0,24.52-14.13,36.78-38.25,39.11-22.43,2.17-42.47-20.87-41.58-39.29,1.1-22.77,18-39.81,40.79-41C832.77,799.37,857.56,820.09,852.9,841.63Z"/><path class="cls-1" d="M953.6,111c-.15-35.51-21.88-57.3-57.18-57.52-30.1-.18-60.19,0-90.28,0-31.66,0-63.29-.37-94.91.09-29.88.43-52.87,21.27-53.42,49.93q-1.34,68.07,0,136.18c.52,27.4,22,48,48.91,49.34,19.49,1,19.49,1,15.81,21-.27,1.5-.61,3-.88,4.47-1.2,6.47-.59,12.66,5.45,16.27,7,4.17,12.6.58,17.62-4.44,9-9,18.6-17.53,26.94-27.15,7-8.12,15-10.48,25.47-10.3,33.12.58,66.31.28,99.47.18,35.95-.12,56.88-21,57-57.12Q953.89,171.4,953.6,111ZM938.13,234.7c-.37,24.18-15.57,38.49-40.09,38.77-33.65.37-67.33.89-100.94-.25-15.57-.49-27.8,2.76-37.24,15.48-4.81,6.53-10.48,12.41-15.78,18.6-1.29-.7-2.61-1.41-3.92-2.08a35.71,35.71,0,0,1-.4-5.83c2-25.46,2-25.46-24.52-25.83-28.25-.37-40.85-13-40.91-41.25q-.14-62,0-123.9c.09-25.59,13.79-39.44,39.78-39.56q91.07-.37,182.06,0c26.08.09,41.37,14.25,41.86,40.39C938.86,151,938.74,192.87,938.13,234.7Z"/><path class="cls-2" d="M704,675c-3.49-9.71-8-4.81-12.44-2.2C669.4,686,645.34,690.49,619.84,690.4q-133.9-.42-267.81.06c-24.94.09-48.85-3.06-70.85-15.29-6.59-3.68-9-2.85-11.4,4.81-8.46,26.48-12.17,53.57-12.78,81.24.4,35,6.44,68.86,19.7,101.38C325.43,982.24,449,1039.76,565.05,996.73,692.72,949.41,747.05,794.53,704,675ZM577.37,857.54c-.25,18.2-10.3,28.65-28.41,28.84q-61.23.54-122.46,0c-17.19-.13-28.26-10.21-28.9-27.19-.89-23.44-.86-47-.09-70.39C398.09,771,409,761,427.14,760.7c19.92-.37,39.81-.09,59.7-.09,20.41,0,40.82-.28,61.23.09,19,.34,29.08,10.54,29.33,29.51C577.64,812.64,577.67,835.11,577.37,857.54Z"/><path class="cls-2" d="M737.12,478.7c-.12-71.93-43.33-117.19-115.5-118Q483.8,359,346,360.68c-71.65.86-115,46.83-115.1,118.82q0,39.08,0,78.08c.15,70.76,46.24,117.16,116.67,117.28q68.12.09,136.28,0c47.47,0,94.94.19,142.41-.06,63.13-.37,110-47,110.84-110.35C737.43,535.88,737.18,507.29,737.12,478.7Zm-40.85,86.57c-.76,39.26-29,67.12-68.25,67.45q-27.48.24-54.94.22-24.09,0-48.24-.06-20.31,0-40.7-.06-41.77,0-83.57.06-27.85,0-55.71-.06c-41-.1-68.25-21.64-71.89-61.79-3.37-37.44-4.36-75.48.95-112.92,4.68-32.79,31.71-55.47,65-55.63q145.4-.59,290.82.07c37.11.21,65.55,29,66.47,66.31C697,501,696.92,533.16,696.27,565.27Z"/><path class="cls-2" d="M852.91,841.64c0,24.51-14.13,36.78-38.25,39.11-22.44,2.17-42.48-20.89-41.59-39.29,1.11-22.78,18-39.81,40.79-41.06C832.77,799.36,857.56,820.09,852.91,841.64Z"/><path class="cls-2" d="M183.34,880.22c-23.56,0-40.82-16.43-41.09-39.1-.26-22.94,18.46-41,42.09-40.52,20.67.39,37.52,18.15,37.55,39.58C221.92,866.16,208.37,880.24,183.34,880.22Z"/><path class="cls-2" d="M751.83,517.45c0-18.86.5-37.74-.2-56.57-.39-10.59,4.09-13.36,13.6-12.58,14,1.14,23.23,10.32,23.3,24.66.15,29.56-.38,59.14.28,88.69.22,10.14-4.62,16.34-11.64,21.72-6.25,4.79-13.91,3.67-20.61,2-7.54-1.89-4.51-9.3-4.6-14.4C751.62,553.13,751.83,535.29,751.83,517.45Z"/><path class="cls-2" d="M215.75,517.72c0,16.28.35,32.58-.14,48.85-.25,8.51,4.83,20.69-12.28,19.79-13.49-.72-24-8.77-24.2-21.75-.41-24.42-.12-48.86-.12-73.29,0-6.61-.23-13.24.09-19.84.49-10.05,5.42-17.28,14.78-21.24,15-6.31,21.8-1.94,21.86,14C215.8,482.09,215.75,499.9,215.75,517.72Z"/><path class="cls-2" d="M514.72,222.54c0,13.86-12.21,26.21-26.27,26.54-14.6.34-27.51-12.2-27.55-26.75s12.81-27,27.63-26.63C502.1,196,514.69,208.93,514.72,222.54Z"/><path class="cls-3" d="M753.3,708.85C800,706,824,738.13,822.09,775c-.28,5.28.09,10.22-7.59,10.25-7.49,0-7.47-4.58-7.85-10-2.67-38.78-15.74-50.93-54.42-51-3.55,0-7.11-.07-10.66,0-6,.14-11.3-.09-11.17-8.43.12-8.13,5.85-6.73,10.72-6.9C745.17,708.74,749.24,708.85,753.3,708.85Z"/><path class="cls-3" d="M488.92,344.94c-7.64,0-15.28.06-22.92,0-15.74-.11-17.71-3.66-9.49-17.49s20.91-19,36.34-17.13c15.18,1.82,24.47,11.11,29.62,25.21,2.3,6.29,1.6,9.65-6.06,9.45C507.25,344.74,498.08,344.93,488.92,344.94Z"/><path class="cls-3" d="M175.55,767.31c.49-33.82,24.21-58.15,57.38-58.26,4.49,0,12.57-3.86,12.34,6-.19,8-5.81,9-12.71,9.33-16.26.75-29.11,7.78-37.32,22.47-4.46,8-4.1,16.57-4.4,25.21-.19,5.51,2.55,13.15-7.69,13s-6.9-7.81-7.57-13.25A36.81,36.81,0,0,1,175.55,767.31Z"/><path class="cls-2" d="M938.06,109.24c-.49-26.14-15.78-40.3-41.86-40.39q-91-.33-182.06,0c-26,.12-39.69,14-39.78,39.56q-.23,61.92,0,123.9c.06,28.29,12.66,40.88,40.91,41.25,26.57.37,26.54.37,24.52,25.83a35.71,35.71,0,0,0,.4,5.83c1.31.67,2.63,1.38,3.92,2.08,5.3-6.19,11-12.07,15.78-18.6,9.44-12.72,21.67-16,37.24-15.48,33.61,1.14,67.29.62,100.94.25,24.52-.28,39.72-14.59,40.09-38.77C938.74,192.87,938.86,151,938.06,109.24ZM725.69,196.92c-14.22,0-26.42-12.57-25.74-26.51.61-12.9,13.85-25.29,26.48-24.83,13,.46,25.22,13.4,24.88,26.3A25.92,25.92,0,0,1,725.69,196.92Zm79.22,0a25.93,25.93,0,0,1-25.1-25.5c-.06-12.93,12.41-25.68,25.28-25.87,13.33-.18,26.73,13.55,26.11,26.76C830.59,185.27,817.9,197.13,804.91,196.92Zm79.34,0c-12.93-.37-25.16-13.09-24.88-26s13.14-25.5,25.86-25.41,25.44,12.81,25.5,25.68C910.82,185.36,898.47,197.31,884.25,196.92Z"/><path class="cls-1" d="M577.4,790.21c-.25-19-10.3-29.17-29.33-29.51-20.41-.37-40.82-.09-61.23-.09-19.89,0-39.78-.28-59.7.09C409,761,398.09,771,397.51,788.8c-.77,23.44-.8,47,.09,70.39.64,17,11.71,27.06,28.9,27.19q61.23.5,122.46,0c18.11-.19,28.16-10.64,28.41-28.84C577.67,835.11,577.64,812.64,577.4,790.21Zm-31.78,81c-19.37-.28-38.74-.1-58.11-.1s-38.73-.21-58.07.1c-11.77.18-16.76-5.55-16.76-16.71,0-20.9-.09-41.77,0-62.67.09-10.42,5.06-15.87,16-15.84,39.25.18,78.48.12,117.71,0,10.84,0,15.75,5,15.63,15.88-.22,20.9-.28,41.8,0,62.67C562.29,866.18,557.17,871.3,545.62,871.18Z"/><path class="cls-1" d="M696.21,468.86c-.92-37.29-29.36-66.1-66.47-66.31q-145.4-.84-290.82-.07c-33.29.16-60.32,22.84-65,55.63-5.31,37.44-4.32,75.48-.95,112.92,3.64,40.15,30.92,61.69,71.89,61.79q27.86.09,55.71.06,41.79,0,83.57,0,20.37,0,40.7,0,24.13,0,48.24.06c18.32,0,36.62,0,54.94-.22,39.26-.33,67.49-28.19,68.25-67.45C696.92,533.16,697,501,696.21,468.86ZM681,564.66c-.77,31.32-22.68,52.28-54,52.4-47.93.22-95.86.07-143.79.07-46.39,0-92.79.09-139.19,0-35.33-.06-55.16-19.55-55.37-54.57-.22-30.59-.31-61.2,0-91.79.36-31.62,21.3-52.8,52.92-52.89q142.28-.37,284.51,0c32.21.06,54.18,22,54.89,55C681.65,503.46,681.71,534.08,681,564.66Z"/><path class="cls-1" d="M487.52,871.09c-19.36,0-38.73-.23-58.09.09-11.75.19-16.75-5.55-16.75-16.71,0-20.89-.09-41.78,0-62.67.07-10.42,5-15.88,16-15.84q58.85.25,117.7,0c10.85,0,15.76,5,15.64,15.89-.23,20.88-.3,41.78,0,62.66.18,11.65-4.94,16.77-16.51,16.62C526.25,870.91,506.88,871.09,487.52,871.09Z"/><path class="cls-3" d="M681,472.88c-.71-33-22.68-55-54.89-55q-142.26-.37-284.51,0c-31.62.09-52.56,21.27-52.92,52.89-.34,30.59-.25,61.2,0,91.79.21,35,20,54.51,55.37,54.57,46.4.13,92.8,0,139.19,0,47.93,0,95.86.15,143.79-.07,31.29-.12,53.2-21.08,54-52.4C681.71,534.08,681.65,503.46,681,472.88ZM412.25,546.7c-6.47,10-16.27,16.37-28.41,13.92-13.61-2.73-22.92-11.47-23.84-26.18a236.06,236.06,0,0,1,0-33.64c1.29-15.88,13.08-25.59,28.93-25.16,16.42.39,25.62,9.89,26.29,27.27.22,5.12,0,10.2,0,16.95C414.36,527.76,417.86,538,412.25,546.7Zm204.37-18-.09,1.57c-.06.49-.09,1-.15,1.5-.06.64-.15,1.22-.25,1.87,0,.27-.06.55-.12.86-.12.67-.27,1.34-.43,2a30.56,30.56,0,0,1-1.53,4.66c-5.24,12.25-14.07,20.16-27.8,20-13.17-.16-25.4-11.31-26.72-25-1.19-12.13-1.65-24.64,0-36.62,1.81-12.9,9.56-22.43,23.91-23.84,16.11-1.6,25.65,4.5,30.92,18.66.21.55.39,1.1.55,1.66.12.36.24.76.34,1.16.24.92.45,1.87.61,2.79.12.64.21,1.29.3,1.93s.13,1.1.19,1.65c0,.1,0,.19,0,.28,0,.49.09,1,.09,1.47.06.89.09,1.78.09,2.64,0,.61.06,1.19,0,1.8s0,1.48,0,2.21c0,1.69,0,3.37.07,5.06C616.69,521,616.84,524.88,616.62,528.74Z"/><path class="cls-2" d="M616.67,517.06c0,8.13.73,16.32-2.61,24.11-5.26,12.28-14.07,20.19-27.79,20-13.2-.16-25.41-11.31-26.75-25-1.19-12.11-1.65-24.62,0-36.6,1.8-12.92,9.54-22.44,23.88-23.85,16.13-1.6,25.65,4.52,30.93,18.66C617.14,501.88,616.54,509.45,616.67,517.06Z"/><path class="cls-2" d="M415.26,519.86c-.9,7.89,2.6,18.17-3,26.84-6.48,10-16.27,16.37-28.43,13.92-13.61-2.74-22.9-11.47-23.82-26.19a236.06,236.06,0,0,1,0-33.64c1.28-15.88,13.06-25.58,28.93-25.17,16.4.43,25.6,9.91,26.29,27.3C415.43,508,415.26,513.13,415.26,519.86Z"/></svg>